<svg xmlns="http://www.w3.org/2000/svg" xmlns:xlink="http://www.w3.org/1999/xlink" width="10" height="10" viewBox="0 0 10 10">
  <defs>
    <clipPath id="clip-path">
      <rect id="Rectangle_3994" data-name="Rectangle 3994" width="10" height="10" transform="translate(203 -73)" fill="#fff" stroke="#707070" stroke-width="1"/>
    </clipPath>
  </defs>
  <g id="favicon" transform="translate(-203 73)" clip-path="url(#clip-path)">
    <path id="Path_21173" data-name="Path 21173" d="M240.682,68.711a3.869,3.869,0,0,1-.913,1.068l-.005,0a3.676,3.676,0,0,1-.467.289c.024-.227.04-.454.048-.684.006-.178.008-.355,0-.531a9.469,9.469,0,0,0-.193-1.734q-.066-.317-.153-.628c-.007-.026-.014-.051-.021-.076s-.016-.055-.025-.082a9.447,9.447,0,0,0-1.3-2.7c.005.187,0,.376,0,.565a9.534,9.534,0,0,1-.2,1.652l-.01.048-.011.047h0a9.462,9.462,0,0,1-1.682,3.64,3.855,3.855,0,0,1-.858-3.052c0-.01,0-.02,0-.029a3.87,3.87,0,0,0-.779.676l-.016.019a3.544,3.544,0,0,0-.29.379c-.012.017-.023.033-.034.05-.047.072-.092.145-.133.22a3.812,3.812,0,0,0-.289.653h0a3.782,3.782,0,0,0-.189.72c0,.007,0,.015,0,.022a3.755,3.755,0,0,0-.042.45,3.277,3.277,0,0,0,0,.333,3.75,3.75,0,0,0,.449,1.606l.018.032a3.8,3.8,0,0,0,3.2,1.964,3.861,3.861,0,0,0,.518-.017h0a3.851,3.851,0,0,0,2.737-1.505l.017-.023,0,0,.016-.022a3.833,3.833,0,0,0,.636-1.347s0,0,0,0a3.324,3.324,0,0,0-.03-1.989" transform="translate(-28.994 -136.635)" fill="#a01d21"/>
  </g>
</svg>
