<svg xmlns="http://www.w3.org/2000/svg" width="14.705" height="19" viewBox="0 0 14.705 19"><path d="M247.492,73.279a7.35,7.35,0,0,1-1.734,2.029l-.01.007a6.984,6.984,0,0,1-.888.55c.045-.43.077-.863.092-1.3.012-.339.016-.675.005-1.009a17.993,17.993,0,0,0-.366-3.294q-.126-.6-.291-1.192c-.013-.049-.027-.1-.04-.144s-.03-.1-.047-.156a17.948,17.948,0,0,0-2.472-5.133c.01.355.008.714,0,1.074a18.114,18.114,0,0,1-.384,3.14c-.007.03-.013.06-.02.09l-.02.09h0a17.979,17.979,0,0,1-3.2,6.916,7.325,7.325,0,0,1-1.63-5.8c0-.018.005-.038.008-.056a7.353,7.353,0,0,0-1.479,1.285c-.011.011-.021.023-.031.035a6.726,6.726,0,0,0-.551.72c-.023.032-.044.063-.064.1-.089.136-.174.276-.253.418a7.242,7.242,0,0,0-.549,1.241,0,0,0,0,1,0,0,7.185,7.185,0,0,0-.36,1.369c0,.013,0,.028-.006.041a7.141,7.141,0,0,0-.08.855,6.228,6.228,0,0,0,.008.632,7.126,7.126,0,0,0,.853,3.051c.011.019.024.041.034.061a7.221,7.221,0,0,0,6.077,3.732,7.334,7.334,0,0,0,.985-.032h.006a7.317,7.317,0,0,0,5.2-2.86l.032-.043,0,0,.031-.043a7.284,7.284,0,0,0,1.209-2.559s0,0,0-.007A6.315,6.315,0,0,0,247.5,73.3" transform="translate(-233.114 -63.635)"/></svg>