<svg xmlns="http://www.w3.org/2000/svg" width="82.445" height="31.5" viewBox="0 0 82.445 31.5"><defs><style>.a{stroke:rgba(0,0,0,0);stroke-miterlimit:10;}.b{fill:#a01d21;}</style></defs><path d="M144.5,77.674l-4.579,26.142h-8.2L136.3,77.674Z" transform="translate(-131.721 -72.817)"/><path class="a" d="M8.212,26.191H0L4.587,0H12.8l6.363,13.391L21.492,0H29.7l-.273,1.558a13.1,13.1,0,0,0-3.551,20.278l-.762,4.353H16.9l-6.4-13.169L8.212,26.19Z" transform="translate(10.84 4.809)"/><path class="a" d="M8.211,26.191H0l.262-1.5a13.072,13.072,0,0,0,7.009-11.6,13.06,13.06,0,0,0-3.43-8.836L4.586,0H12.8l6.362,13.391L21.492,0H29.7L25.117,26.189H16.9l-6.4-13.169L8.212,26.19Z" transform="translate(52.145 4.809)"/><path class="b" d="M254.991,78.308a11.184,11.184,0,0,1-2.639,3.087l-.015.011a10.626,10.626,0,0,1-1.351.837c.069-.655.117-1.313.14-1.979.018-.516.024-1.027.008-1.535a27.379,27.379,0,0,0-.557-5.013q-.191-.918-.443-1.814c-.019-.074-.04-.147-.062-.22s-.046-.159-.071-.238a27.309,27.309,0,0,0-3.761-7.81c.015.54.012,1.086-.007,1.633a27.563,27.563,0,0,1-.585,4.777c-.01.045-.019.092-.03.137s-.021.09-.031.137v0a27.354,27.354,0,0,1-4.862,10.523,11.145,11.145,0,0,1-2.48-8.824c0-.028.008-.057.012-.085a11.187,11.187,0,0,0-2.251,1.955c-.017.017-.032.036-.047.054a10.232,10.232,0,0,0-.838,1.1c-.034.049-.067.1-.1.145-.135.207-.265.42-.385.637a11.018,11.018,0,0,0-.835,1.888.005.005,0,0,1,0,0,10.931,10.931,0,0,0-.548,2.083c0,.02-.006.043-.01.063a10.863,10.863,0,0,0-.122,1.3,9.477,9.477,0,0,0,.012.962,10.842,10.842,0,0,0,1.3,4.643c.017.029.036.063.051.093a10.987,10.987,0,0,0,9.246,5.678,11.159,11.159,0,0,0,1.5-.049.017.017,0,0,0,.009,0,11.133,11.133,0,0,0,7.911-4.352c.017-.021.032-.045.049-.066l0-.006.048-.065a11.083,11.083,0,0,0,1.839-3.893s0-.006,0-.01A9.609,9.609,0,0,0,255,78.345" transform="translate(-198.032 -63.635)"/></svg>