<svg xmlns="http://www.w3.org/2000/svg" xmlns:xlink="http://www.w3.org/1999/xlink" width="60" height="60" viewBox="0 0 60 60"><defs><style>.a{fill:#a01d21;}.b{clip-path:url(#a);}</style><clipPath id="a"><rect class="a" width="60" height="60" transform="translate(27 290)"/></clipPath></defs><g class="b" transform="translate(-27 -290)"><path class="a" d="M18,33.8H36a9,9,0,0,0,9-9h3a12,12,0,1,0,0-24H11.253A2.244,2.244,0,0,0,9,3.05V24.8A9,9,0,0,0,18,33.8Zm30-27a6,6,0,1,1,0,12H45V6.8Zm4.471,36H4.532c-4.462,0-5.718-6-3.375-6h54.68c2.344,0,1.106,6-3.365,6Z" transform="translate(27.001 298.202)"/></g></svg>