<svg xmlns="http://www.w3.org/2000/svg" xmlns:xlink="http://www.w3.org/1999/xlink" width="60" height="60" viewBox="0 0 60 60"><defs><style>.a{fill:none;}.b{clip-path:url(#a);}.c{fill:#a01d21;}</style><clipPath id="a"><rect class="a" width="60" height="60" transform="translate(26 150)"/></clipPath></defs><g class="b" transform="translate(-26 -150)"><path class="c" d="M33.75,9.8V7.625h1.875A1.874,1.874,0,0,0,37.5,5.75V3.875A1.874,1.874,0,0,0,35.625,2H24.375A1.874,1.874,0,0,0,22.5,3.875V5.75a1.874,1.874,0,0,0,1.875,1.875H26.25V9.8A26.234,26.234,0,0,0,3.75,35.75h52.5A26.234,26.234,0,0,0,33.75,9.8ZM58.125,39.5H1.875A1.874,1.874,0,0,0,0,41.375v3.75A1.874,1.874,0,0,0,1.875,47h56.25A1.874,1.874,0,0,0,60,45.125v-3.75A1.874,1.874,0,0,0,58.125,39.5Z" transform="translate(26 155.5)"/></g></svg>