<svg xmlns="http://www.w3.org/2000/svg" xmlns:xlink="http://www.w3.org/1999/xlink" width="60" height="60" viewBox="0 0 60 60"><defs><style>.a{fill:#a01d21;}.b{clip-path:url(#a);}</style><clipPath id="a"><rect class="a" width="60" height="60" transform="translate(26 353)"/></clipPath></defs><g class="b" transform="translate(-26 -353)"><path class="a" d="M0,47.5v5C0,56.637,10.078,60,22.5,60S45,56.637,45,52.5v-5c-4.84,3.41-13.687,5-22.5,5S4.84,50.906,0,47.5ZM37.5,15C49.922,15,60,11.637,60,7.5S49.922,0,37.5,0,15,3.363,15,7.5,25.078,15,37.5,15ZM0,35.2V41.25c0,4.137,10.078,7.5,22.5,7.5S45,45.387,45,41.25V35.2c-4.84,3.984-13.7,6.047-22.5,6.047S4.84,39.188,0,35.2Zm48.75,1.289C55.465,35.191,60,32.777,60,30V25c-2.719,1.922-6.715,3.234-11.25,4.043ZM22.5,18.75c-12.422,0-22.5,4.2-22.5,9.375S10.078,37.5,22.5,37.5,45,33.3,45,28.125,34.922,18.75,22.5,18.75Zm25.7,6.6C55.23,24.082,60,21.6,60,18.75v-5c-4.16,2.941-11.309,4.523-18.832,4.9C44.625,20.32,47.168,22.57,48.2,25.348Z" transform="translate(26 353)"/></g></svg>