<svg xmlns="http://www.w3.org/2000/svg" xmlns:xlink="http://www.w3.org/1999/xlink" width="60" height="60" viewBox="0 0 60 60"><defs><style>.a{fill:#a01d21;}.b{clip-path:url(#a);}</style><clipPath id="a"><rect class="a" width="60" height="60" transform="translate(27 321)"/></clipPath></defs><g class="b" transform="translate(-27 -321)"><path class="a" d="M34.944,18.353a14.558,14.558,0,0,0-17.6,3.844l6.469,6.469a1.873,1.873,0,1,1-2.649,2.649l-5.883-5.883L.265,56.219a2.658,2.658,0,0,0,0,2.309,2.635,2.635,0,0,0,3.516,1.207l15.657-7.641-5.766-5.766a1.86,1.86,0,0,1,0-2.649,1.882,1.882,0,0,1,2.649,0L23,50.359l11.954-5.836a14.559,14.559,0,0,0-.012-26.17Zm10.794-4.09C48.023,9.493,46.839,3.856,42.186,0c-5.895,4.887-6.153,12.6-.926,17.8l.938.938c5.2,5.227,12.927,4.969,17.8-.926-3.856-4.653-9.493-5.836-14.263-3.551Z" transform="translate(26.999 321)"/></g></svg>